# xmcd
#
# Track frame offsets:
#	150
#	5011
#	29062
#	44207
#	67208
#	88728
#	107499
#	134439
#	166079
#	189364
#	224333
#	249418
#	277706
#	296801
#
# Disc length: 4368 seconds
#
# Revision: 1
# Processed by: cddbd v1.5.2PL0 Copyright (c) Steve Scherf et al.
# Submitted via: EasyCDDAExtractor 15.3.0.1
#
DISCID=d4110e0e
DTITLE=Alejandro Sanz - Sirope Vivo - CD 1
DYEAR=2015
DGENRE=Latin
TTITLE0=Intro
TTITLE1=El Silencio De Los Cuervos
TTITLE2=A Mi No Me Importa
TTITLE3=No Madura El Coco
TTITLE4=Pero Tu
TTITLE5=Desde Cuando
TTITLE6=Quisiera Ser (Con Vanesa Martin)
TTITLE7=No Me Compares (Con Pablo Lopez)
TTITLE8=La Musica No Se Toca
TTITLE9=Medley (Amiga Mia, Mi Soledad Y Yo, Y, Si Fuera Ella)
TTITLE10=Mi Marciana
TTITLE11=Corazon Partio
TTITLE12=Tu La Necesitas
TTITLE13=Labana
EXTD=
EXTT0=
EXTT1=
EXTT2=
EXTT3=
EXTT4=
EXTT5=
EXTT6=
EXTT7=
EXTT8=
EXTT9=
EXTT10=
EXTT11=
EXTT12=
EXTT13=
PLAYORDER=
